<?xml version="1.0" standalone="no"?>
<!DOCTYPE svg PUBLIC "-//W3C//DTD SVG 20010904//EN"
 "http://www.w3.org/TR/2001/REC-SVG-20010904/DTD/svg10.dtd">
<svg version="1.0" xmlns="http://www.w3.org/2000/svg"
 width="116.000000pt" height="116.000000pt" viewBox="0 0 116.000000 116.000000"
 preserveAspectRatio="xMidYMid meet">
<metadata>
Created by potrace 1.11, written by Peter Selinger 2001-2013
</metadata>
<g transform="translate(0.000000,116.000000) scale(0.100000,-0.100000)"
fill="#000000" stroke="none">
<path d="M10 580 l0 -580 570 0 570 0 0 83 0 82 -18 -30 c-11 -16 -26 -36 -34
-43 -23 -19 -85 -27 -102 -13 -10 9 -25 9 -59 -1 -37 -9 -51 -9 -70 1 -18 10
-30 10 -45 2 -11 -6 -32 -11 -46 -11 -28 0 -92 50 -101 80 -5 16 -13 12 -54
-31 -59 -61 -93 -65 -144 -17 l-34 33 -45 -28 c-154 -96 -367 10 -368 184 0
93 86 190 181 205 32 5 39 11 39 30 0 31 -26 54 -61 54 -22 0 -29 5 -29 20 0
16 7 20 36 20 47 0 94 -45 94 -89 0 -23 5 -31 18 -31 15 0 17 12 17 113 0 135
5 156 51 206 l35 39 -76 62 c-41 34 -75 63 -75 65 0 7 128 105 137 105 5 0 21
-24 36 -52 l27 -53 -6 58 -6 57 96 0 c95 0 96 0 92 -22 -3 -13 -7 -41 -10 -63
l-6 -40 30 58 c17 31 33 57 37 57 12 0 133 -95 132 -105 0 -5 -33 -36 -74 -69
l-74 -59 34 -31 c46 -44 58 -97 53 -239 l-4 -117 31 0 c17 0 36 -5 41 -10 19
-19 44 -1 38 28 -8 48 -34 217 -34 225 0 4 34 7 75 7 88 0 84 10 59 -151 -9
-56 -12 -105 -8 -109 5 -5 28 -4 52 3 51 13 83 -1 120 -53 l22 -33 0 392 0
391 -570 0 -570 0 0 -580z"/>
<path d="M498 1063 c-2 -5 2 -50 10 -100 12 -79 17 -93 33 -93 11 0 19 1 19 3
0 1 7 40 15 87 8 47 15 91 15 98 0 13 -86 18 -92 5z"/>
<path d="M346 1007 l-28 -23 70 -57 c39 -31 73 -57 77 -57 3 0 -13 36 -35 80
-22 44 -44 80 -48 80 -4 0 -20 -10 -36 -23z"/>
<path d="M653 950 c-23 -44 -38 -80 -33 -80 5 0 37 23 72 52 35 28 65 53 67
55 7 5 -41 53 -53 53 -6 0 -30 -36 -53 -80z"/>
<path d="M433 815 c-55 -24 -68 -63 -67 -204 0 -111 2 -124 20 -134 10 -5 38
-29 60 -51 65 -64 79 -149 37 -229 -14 -28 -13 -31 13 -58 37 -38 67 -37 97 4
40 53 54 89 60 153 3 38 15 79 31 110 31 59 32 64 6 64 -11 0 -20 7 -20 15 0
8 9 15 19 15 20 0 31 18 31 51 0 17 -8 19 -100 19 -82 0 -100 3 -100 15 0 12
18 15 100 15 l100 0 0 35 0 35 -65 0 c-51 0 -65 3 -65 15 0 12 14 15 65 15
l65 0 -6 28 c-8 36 -36 74 -65 89 -32 17 -176 16 -216 -2z m127 -130 c0 -8 -9
-15 -20 -15 -11 0 -20 7 -20 15 0 8 9 15 20 15 11 0 20 -7 20 -15z m80 -200
c0 -12 -13 -15 -60 -15 -47 0 -60 3 -60 15 0 12 13 15 60 15 47 0 60 -3 60
-15z"/>
<path d="M881 658 c0 -13 6 -57 13 -98 12 -68 13 -72 19 -40 10 51 27 153 27
157 0 2 -13 3 -30 3 -25 0 -30 -4 -29 -22z"/>
<path d="M207 457 c-205 -64 -169 -331 47 -345 71 -5 122 15 167 65 88 95 38
245 -93 281 l-38 10 0 -44 c0 -49 17 -57 59 -28 17 12 26 13 34 5 8 -8 6 -17
-11 -33 -43 -43 -197 -35 -222 12 -13 25 15 35 43 15 41 -28 57 -20 57 30 0
25 -1 45 -2 44 -2 0 -20 -6 -41 -12z"/>
<path d="M731 404 c-45 -58 -53 -180 -14 -246 24 -40 44 -52 76 -44 l26 6 -19
43 c-24 51 -25 145 -4 202 22 59 22 60 -12 63 -25 2 -37 -3 -53 -24z"/>
<path d="M867 413 c-80 -89 -49 -303 44 -303 35 0 64 39 79 105 21 95 -18 207
-76 213 -19 2 -36 -3 -47 -15z"/>
<path d="M1006 421 c-4 -6 1 -25 11 -43 12 -23 17 -56 17 -108 0 -52 -5 -85
-17 -108 -20 -36 -16 -52 14 -52 55 0 89 62 89 163 0 87 -32 151 -77 155 -17
2 -34 -1 -37 -7z"/>
</g>
</svg>
